<svg width="18" height="17" viewBox="0 0 18 17" fill="none" xmlns="http://www.w3.org/2000/svg">
<path d="M15.75 3.54166L2.25 3.54166C2.11332 3.54206 1.97934 3.57766 1.86249 3.64463C1.74564 3.7116 1.65034 3.8074 1.58685 3.92171C1.52336 4.03603 1.49408 4.16454 1.50217 4.2934C1.51026 4.42226 1.5554 4.5466 1.63275 4.65303L8.38275 13.8614C8.6625 14.2432 9.336 14.2432 9.6165 13.8614L16.3665 4.65303C16.4446 4.54682 16.4904 4.42242 16.499 4.29334C16.5075 4.16427 16.4784 4.03545 16.4149 3.92089C16.3513 3.80633 16.2557 3.71041 16.1385 3.64355C16.0213 3.57669 15.8869 3.54145 15.75 3.54166Z" fill="black"/>
</svg>
