<svg width="56" height="56" viewBox="0 0 56 56" fill="none" xmlns="http://www.w3.org/2000/svg">
<g clip-path="url(#clip0_9_260)">
<path d="M18.2485 16.4506C18.2485 18.4335 19.861 20.046 21.8438 20.046C23.8267 20.046 25.4392 18.4335 25.4392 16.4506C25.4392 14.4677 23.8267 12.8552 21.8438 12.8552C19.861 12.8552 18.2485 14.4677 18.2485 16.4506ZM23.6415 16.4506C23.6415 17.442 22.8352 18.2483 21.8438 18.2483C20.8525 18.2483 20.0462 17.442 20.0462 16.4506C20.0462 15.4592 20.8525 14.6529 21.8438 14.6529C22.8352 14.6529 23.6415 15.4592 23.6415 16.4506ZM47.0116 12.8552C45.0287 12.8552 43.4162 14.4677 43.4162 16.4506C43.4162 18.4335 45.0287 20.046 47.0116 20.046C48.9944 20.046 50.607 18.4335 50.607 16.4506C50.607 14.4677 48.9944 12.8552 47.0116 12.8552ZM47.0116 18.2484C46.0202 18.2484 45.2139 17.4421 45.2139 16.4507C45.2139 15.4593 46.0202 14.653 47.0116 14.653C48.0031 14.653 48.8093 15.4593 48.8093 16.4507C48.8093 17.4421 48.0021 18.2484 47.0116 18.2484Z" fill="#1F1F1F"/>
<path d="M56 16.4507C56 15.1949 55.3528 14.0661 54.3246 13.4215C54.5969 12.2378 54.2562 10.9829 53.3682 10.0949C52.4811 9.20686 51.2245 8.87064 50.0416 9.1385C49.7207 8.62475 49.2742 8.20129 48.7442 7.90813C48.2142 7.61497 47.6181 7.4618 47.0124 7.46309C45.7558 7.46309 44.6269 8.11114 43.9824 9.14123C43.5986 9.05494 43.204 9.03875 42.813 9.07834C42.5353 8.6613 42.1748 8.29992 41.7415 8.02845C42.0139 6.84469 41.6732 5.58983 40.7852 4.70181C39.898 3.81467 38.6414 3.47758 37.4585 3.74544C36.8141 2.71622 35.6851 2.07003 34.4294 2.07003C33.1737 2.07003 32.0448 2.7172 31.4003 3.74544C30.2192 3.4767 28.9616 3.81467 28.0736 4.70181C27.1856 5.58983 26.8449 6.84556 27.1172 8.02933C26.6902 8.29631 26.3343 8.65583 26.0539 9.07473C25.6637 9.03339 25.2656 9.04958 24.8755 9.13762C24.5474 8.61361 24.0917 8.18934 23.5587 7.89906C23.2828 5.93414 22.2859 4.1113 20.7561 2.83588L17.3496 0L13.9456 2.83588C13.2859 3.38592 12.7322 4.03134 12.2873 4.73878C12.2379 4.68661 12.1929 4.63006 12.1426 4.57877C10.5237 2.95991 8.37189 2.06828 6.08245 2.06828H2.06916V6.08169C2.06916 8.37102 2.96078 10.5229 4.57964 12.1417C4.61202 12.1741 4.648 12.202 4.68027 12.2334C4.09237 12.619 3.55316 13.0855 3.09116 13.6392L0 17.3496L3.09028 21.06C4.3505 22.5711 6.15628 23.4789 8.10316 23.6136C7.69234 24.6293 7.46233 25.7107 7.46233 26.819V30.8324H10.4689C12.023 35.1216 14.9704 38.7027 18.8722 41.0568L18.7446 41.3112C18.4201 41.9619 18.2475 42.6891 18.2475 43.4163C18.2475 44.1435 18.4192 44.8707 18.7446 45.5214L19.0403 46.1128L18.7446 46.7042C18.4201 47.355 18.2475 48.0821 18.2475 48.8094C18.2475 49.5366 18.4192 50.2637 18.7446 50.9145L19.4897 52.4047H20.0453C21.1077 52.4047 22.136 52.1962 23.0951 51.8223C22.9657 52.2457 22.8496 52.6771 22.7598 53.1275L22.545 54.2025H23.7962C24.6159 54.2025 25.3871 54.5216 25.966 55.1014C26.5448 55.6812 27.316 56 28.1357 56C28.9555 56 29.7267 55.681 30.3055 55.1012C30.8843 54.5214 31.6555 54.2023 32.4753 54.2023L33.7085 54.1151L33.4937 53.0401C33.411 52.6284 33.3023 52.2239 33.18 51.824C34.1372 52.1969 35.1646 52.4046 36.2253 52.4046H36.7808L37.526 50.9144C37.8505 50.2636 38.0231 49.5365 38.0231 48.8092C38.0231 48.082 37.8514 47.3549 37.526 46.7041L37.2303 46.1127L37.526 45.5213C37.8505 44.8705 38.0231 44.1434 38.0231 43.4162C38.0231 42.689 37.8514 41.9618 37.526 41.311L37.4037 41.0666C42.9361 37.7256 46.5091 31.8759 46.9558 25.4356C46.9747 25.4356 46.9918 25.4392 47.0106 25.4392C48.2663 25.4392 49.3952 24.792 50.0397 23.7638C51.2217 24.0344 52.4792 23.6954 53.3664 22.8074C54.2544 21.9194 54.5951 20.6645 54.3227 19.4808C55.3528 18.8354 56 17.7064 56 16.4507ZM28.5052 9.35255L29.537 9.03252L29.0337 8.07614C28.6642 7.37319 28.7884 6.52739 29.342 5.97286C29.8957 5.42008 30.7406 5.29331 31.4453 5.66453L32.4017 6.16787L32.7217 5.13603C32.9572 4.37741 33.6421 3.86772 34.4259 3.86772C35.2097 3.86772 35.8955 4.37741 36.1301 5.13603L36.4501 6.16787L37.4065 5.66453C38.1103 5.29419 38.9561 5.41909 39.5098 5.97286C40.0634 6.5275 40.1874 7.3733 39.8181 8.07614L39.3147 9.03252L40.3466 9.35255C41.1052 9.58803 41.6149 10.2729 41.6149 11.0567C41.6149 11.8405 41.1052 12.5263 40.3466 12.7609L39.3147 13.0809L39.8181 14.0373C40.1624 14.6934 40.0625 15.4638 39.6005 16.0148C39.2221 14.805 38.352 13.8225 37.2186 13.2904C37.7121 12.6747 38.0203 11.9044 38.0203 11.055C38.0203 9.07211 36.4078 7.45959 34.4249 7.45959C32.442 7.45959 30.8295 9.07211 30.8295 11.055C30.8295 12.2657 31.4354 13.3336 32.3558 13.9861C31.6195 14.6369 31.0919 15.5187 30.905 16.5226C30.8771 16.528 30.8511 16.5379 30.8232 16.5433C30.8241 16.5109 30.8295 16.4804 30.8295 16.448C30.8295 15.1923 30.1824 14.0634 29.1541 13.4189C29.4265 12.2351 29.0858 10.9803 28.1978 10.0923C28.0737 9.96822 27.9416 9.85852 27.805 9.75603C28.0045 9.57545 28.2436 9.43425 28.5052 9.35255ZM31.7311 23.6415C30.3865 23.6415 29.2773 22.669 29.0768 21.3584C29.2219 20.9052 29.2745 20.4274 29.2315 19.9535C29.6378 18.9298 30.6166 18.2493 31.7311 18.2493H32.63V17.3505C32.63 15.8637 33.8397 14.654 35.3265 14.654C36.8132 14.654 38.023 15.8637 38.023 17.3505V18.2493H38.9219C40.4086 18.2493 41.6184 19.4591 41.6184 20.9459C41.6184 22.4326 40.4086 23.6424 38.9219 23.6424H38.023V24.5412C38.023 26.028 36.8132 27.2378 35.3265 27.2378C33.8397 27.2378 32.63 26.028 32.63 24.5412V23.6424H31.7311V23.6415ZM28.1313 27.485C27.0219 26.2961 25.792 25.2258 24.4613 24.2913C24.6123 24.1277 24.7534 23.9551 24.8738 23.7637C25.3806 23.8801 25.9066 23.8842 26.4151 23.7758C26.9237 23.6675 27.4023 23.4492 27.8176 23.1363C28.104 23.6512 28.4899 24.104 28.9528 24.4685C29.4157 24.8329 29.9464 25.1018 30.5141 25.2594C29.6638 25.9479 28.8701 26.6931 28.1313 27.485ZM34.4276 12.8553C33.4362 12.8553 32.63 12.049 32.63 11.0576C32.63 10.0662 33.4363 9.25991 34.4276 9.25991C35.419 9.25991 36.2253 10.0662 36.2253 11.0576C36.2253 12.049 35.4181 12.8553 34.4276 12.8553ZM24.8253 11.0576C25.5281 10.6891 26.374 10.8113 26.9286 11.3659C27.4822 11.9206 27.6062 12.7664 27.2369 13.4692L26.7335 14.4256L27.7654 14.7456C28.524 14.9811 29.0337 15.666 29.0337 16.4498C29.0337 17.2336 28.524 17.9193 27.7654 18.154L26.7335 18.474L27.2369 19.4304C27.6064 20.1332 27.4823 20.9791 26.9286 21.5336C26.3749 22.0873 25.53 22.2123 24.8253 21.842L23.8689 21.3386L23.5489 22.3705C23.3134 23.1291 22.6285 23.6388 21.8447 23.6388C21.0609 23.6388 20.3751 23.1291 20.1405 22.3705L19.8205 21.3386L18.8641 21.842C18.1613 22.2123 17.3164 22.0892 16.7608 21.5336C16.2072 20.979 16.0832 20.1332 16.4525 19.4304L16.9559 18.474L15.924 18.154C15.1654 17.9185 14.6557 17.2336 14.6557 16.4498C14.6557 15.666 15.1654 14.9802 15.924 14.7456L16.9559 14.4256L16.4525 13.4692C16.083 12.7664 16.2071 11.9205 16.7608 11.3659C17.3145 10.8123 18.1585 10.6864 18.8641 11.0576L19.8205 11.5609L20.1405 10.5291C20.376 9.77047 21.0609 9.26078 21.8447 9.26078C22.6285 9.26078 23.3143 9.77047 23.5489 10.5291L23.8689 11.5609L24.8253 11.0576ZM15.097 4.21739L17.3495 2.33975L19.603 4.21739C20.6133 5.05958 21.3243 6.21009 21.6461 7.47392C20.4704 7.53867 19.4241 8.16244 18.8147 9.13675C18.6278 9.09453 18.4381 9.072 18.2485 9.0603V5.66453H16.4508V7.98897L15.2885 6.82675L14.0176 8.09769L15.7686 9.84867C15.6725 9.92688 15.5772 10.006 15.4882 10.095C14.6531 10.9301 14.3098 12.0868 14.4958 13.2059C13.4397 12.0545 12.8554 10.5759 12.8554 9.00386C12.8553 7.14941 13.6724 5.40477 15.097 4.21739ZM5.85058 10.8715C4.57155 9.59164 3.86684 7.89184 3.86684 6.08245V3.86684H6.08245C7.89184 3.86684 9.59153 4.57155 10.8715 5.85058C11.0819 6.06091 11.2724 6.29016 11.4531 6.52652C11.1969 7.31752 11.0576 8.15073 11.0576 9.00375C11.0576 9.28145 11.0729 9.55741 11.1007 9.82975L6.3 5.02906L5.02906 6.3L9.92414 11.1951C9.49178 11.1141 9.05319 11.0576 8.60464 11.0576C7.87117 11.0576 7.15477 11.1763 6.47172 11.3883C6.25953 11.2221 6.04209 11.0631 5.85058 10.8715ZM4.47267 19.9085L2.34063 17.3486L4.4718 14.7896C5.49828 13.56 7.00383 12.8544 8.60563 12.8544C10.4087 12.8544 12.0761 13.7677 13.0675 15.2516C12.9336 15.6291 12.8554 16.0309 12.8554 16.4498H11.4298L8.99664 14.0166L7.7257 15.2876L8.88792 16.4498H5.66453V18.2475H8.88781L7.72559 19.4097L8.99653 20.6806L11.4297 18.2475H13.3416C13.4053 18.3572 13.4719 18.465 13.5474 18.5665C12.7007 20.5583 10.7772 21.8428 8.60464 21.8428C7.00383 21.8438 5.49741 21.1383 4.47267 19.9085ZM9.25991 26.819C9.25991 25.6298 9.5853 24.4775 10.1749 23.4501C11.9178 23.0627 13.436 22.047 14.4588 20.5863C14.5038 21.1131 14.6593 21.6272 14.9325 22.0901L10.4212 26.6014L11.6922 27.8724L16.2035 23.3611C16.7688 23.6946 17.4106 23.8563 18.0578 23.8482C17.7663 25.0607 17.1454 26.169 16.2637 27.0508C14.9838 28.3299 13.284 29.0346 11.4746 29.0346H9.25903V26.819H9.25991ZM12.3709 30.7837C14.3213 30.5823 16.1299 29.7267 17.5357 28.3209C18.5504 27.3061 19.2767 26.0612 19.6803 24.7076C20.3017 25.1821 21.062 25.4389 21.8438 25.4383C22.1629 25.4383 22.4739 25.3952 22.7714 25.316C24.3076 26.312 25.7062 27.4984 26.9466 28.8477C24.3724 32.0737 22.6734 35.9468 22.0731 40.0725C21.505 39.9323 20.919 39.8541 20.3221 39.8343C16.6863 37.8065 13.9079 34.6245 12.3709 30.7837ZM20.3535 50.1098C20.1521 49.7081 20.046 49.2587 20.046 48.8092C20.046 48.3598 20.1521 47.9104 20.3535 47.5087L21.051 46.1127L20.3535 44.7168C20.1521 44.315 20.046 43.8656 20.046 43.4162C20.046 42.9668 20.1521 42.5173 20.3535 42.1155L20.5908 41.6409C22.3921 41.7884 24.0442 42.662 25.1858 44.0885L25.779 44.831C25.5696 45.2139 25.4393 45.6471 25.4393 46.1136C25.4393 46.5801 25.5697 47.0133 25.779 47.3962L25.1867 48.1369C24.0442 49.5643 22.3921 50.438 20.5908 50.5854L20.3535 50.1098ZM29.0346 46.1127C29.0346 46.6088 28.6319 47.0116 28.1357 47.0116C27.6396 47.0116 27.2369 46.6088 27.2369 46.1127C27.2369 45.6166 27.6396 45.2139 28.1357 45.2139C28.6319 45.2139 29.0346 45.6165 29.0346 46.1127ZM31.5127 52.499C30.5806 52.6851 29.7231 53.1417 29.0346 53.8293C28.5537 54.3084 27.7178 54.3084 27.2369 53.8293C26.5484 53.1408 25.6909 52.6851 24.7588 52.499C24.997 51.6756 25.3358 50.8865 25.7628 50.1386C26.055 49.8654 26.3354 49.5768 26.5898 49.2587L27.113 48.6043C27.4285 48.7347 27.7736 48.8084 28.1358 48.8084C28.4981 48.8084 28.8423 48.7347 29.1587 48.6043L29.6827 49.2595C29.9371 49.5768 30.2176 49.8654 30.5087 50.1386C30.9356 50.8865 31.2745 51.6756 31.5127 52.499ZM35.918 47.5077C36.1193 47.9094 36.2254 48.3588 36.2254 48.8083C36.2254 49.2577 36.1193 49.7071 35.918 50.1088L35.6806 50.5834C33.8793 50.436 32.2272 49.5623 31.0857 48.1358L30.4924 47.3934C30.7019 47.0105 30.8322 46.5772 30.8322 46.1108C30.8322 45.6443 30.7018 45.211 30.4924 44.8281L31.0848 44.0874C32.2272 42.6601 33.8793 41.7864 35.6806 41.639L35.918 42.1135C36.1193 42.5153 36.2254 42.9647 36.2254 43.4141C36.2254 43.8635 36.1193 44.313 35.918 44.7147L35.2205 46.1106L35.918 47.5077ZM35.9557 39.836C33.5 39.9142 31.225 41.0387 29.6818 42.9658L29.1586 43.6202C28.8431 43.4898 28.498 43.4162 28.1357 43.4162C27.7735 43.4162 27.4293 43.4899 27.1129 43.6202L26.5888 42.9649C25.8204 42.0049 24.8666 41.2472 23.8033 40.7133C24.4945 35.2879 27.236 30.3046 31.4498 26.8099C32.2318 28.1392 33.6762 29.0346 35.3265 29.0346C37.5233 29.0346 39.357 27.45 39.7452 25.3637C40.8194 25.1642 41.7551 24.5763 42.4157 23.7584C42.9308 23.8699 43.4656 23.878 43.9807 23.7602C44.2845 24.2473 44.6997 24.6447 45.1825 24.9322C44.883 31.1397 41.3946 36.7952 35.9557 39.836ZM52.934 18.1549L51.9022 18.475L52.4055 19.4313C52.775 20.1342 52.6508 20.9801 52.0972 21.5346C51.5435 22.0883 50.6986 22.2133 49.9939 21.843L49.0375 21.3396L48.7175 22.3715C48.482 23.1301 47.7971 23.6398 47.0133 23.6398C46.2295 23.6398 45.5438 23.1301 45.3091 22.3715L44.9891 21.3396L44.0327 21.843C43.7928 21.9688 43.5294 22.0353 43.2651 22.0479C43.3559 21.6929 43.4188 21.327 43.4188 20.9441C43.4188 19.2624 42.4876 17.7999 41.1169 17.0296C41.4301 16.6145 41.6485 16.1358 41.7567 15.6272C41.865 15.1186 41.8604 14.5925 41.7434 14.0859C42.2572 13.765 42.6806 13.3185 42.9738 12.7885C43.2669 12.2584 43.4201 11.6624 43.4188 11.0567C43.4188 10.992 43.4098 10.93 43.4062 10.8662C43.6229 10.8932 43.835 10.9534 44.0319 11.0567L44.9882 11.5609L45.3083 10.5281C45.5438 9.76948 46.2287 9.2598 47.0124 9.2598C47.7962 9.2598 48.482 9.76948 48.7166 10.5281L49.0366 11.56L49.993 11.0566C50.696 10.6881 51.5418 10.8103 52.0963 11.3649C52.65 11.9196 52.774 12.7654 52.4046 13.4682L51.9013 14.4246L52.9331 14.7446C53.6917 14.9801 54.2014 15.665 54.2014 16.4488C54.2014 17.2326 53.6917 17.9203 52.934 18.1549Z" fill="#1F1F1F"/>
<path d="M35.3265 23.6416C36.8132 23.6416 38.023 22.4318 38.023 20.9451C38.023 19.4583 36.8132 18.2485 35.3265 18.2485C33.8397 18.2485 32.6299 19.4583 32.6299 20.9451C32.6299 22.4318 33.8389 23.6416 35.3265 23.6416ZM35.3265 20.0462C35.8226 20.0462 36.2253 20.4489 36.2253 20.9451C36.2253 21.4412 35.8226 21.8439 35.3265 21.8439C34.8303 21.8439 34.4276 21.4412 34.4276 20.9451C34.4277 20.7067 34.5224 20.4781 34.691 20.3096C34.8595 20.141 35.0881 20.0463 35.3265 20.0462Z" fill="#1F1F1F"/>
</g>
<defs>
<clipPath id="clip0_9_260">
<rect width="56" height="56" fill="white"/>
</clipPath>
</defs>
</svg>
