<svg width="56" height="56" viewBox="0 0 56 56" fill="none" xmlns="http://www.w3.org/2000/svg">
<g clip-path="url(#clip0_9_231)">
<path d="M55.1359 11.2994H50.5763C50.7095 11.1131 50.829 10.9173 50.934 10.7136C51.2325 10.1289 51.4065 9.48867 51.445 8.83331C51.4835 8.17795 51.3858 7.52171 51.1578 6.90605L49.7761 3.19243C49.547 2.57766 49.1928 2.01711 48.736 1.54623C48.2791 1.07534 47.7296 0.704358 47.122 0.456731C46.5134 0.210135 45.8602 0.0925306 45.2037 0.111357C44.5473 0.130184 43.9019 0.285032 43.3084 0.566106L32.3734 5.75925C31.8151 5.35921 31.1454 5.14434 30.4585 5.14489H25.5417C24.8547 5.14448 24.1848 5.3595 23.6264 5.75969L12.6918 0.565669C12.0982 0.284774 11.4529 0.130062 10.7964 0.111311C10.14 0.0925602 9.48686 0.210178 8.87822 0.456731C7.65245 0.954827 6.6847 1.95211 6.22412 3.19199L4.84238 6.90638C4.6144 7.52201 4.51663 8.17824 4.55524 8.83359C4.59386 9.48893 4.76801 10.1291 5.06671 10.7137C5.17138 10.9175 5.29092 11.1133 5.42437 11.2994H0.864285C0.75079 11.2994 0.638405 11.3218 0.533545 11.3652C0.428686 11.4086 0.333407 11.4723 0.25315 11.5525C0.172892 11.6328 0.109228 11.728 0.0657919 11.8329C0.0223562 11.9377 -9.09034e-10 12.0501 0 12.1636L0 18.3857C5.79898e-05 18.6149 0.0911349 18.8347 0.253207 18.9967C0.415279 19.1588 0.63508 19.2499 0.864285 19.2499C1.09351 19.2499 1.31334 19.1589 1.47543 18.9968C1.63753 18.8347 1.72862 18.6149 1.72868 18.3857V13.0275H7.73175C7.828 13.0613 7.92534 13.0924 8.024 13.1198L15.28 15.1172C13.666 17.5921 12.2443 20.1873 11.0276 22.8798H1.72846V21.8425C1.72843 21.729 1.70605 21.6166 1.6626 21.5118C1.61915 21.407 1.55548 21.3118 1.47523 21.2315C1.39497 21.1513 1.2997 21.0877 1.19486 21.0443C1.09001 21.0009 0.977646 20.9786 0.864175 20.9786C0.750705 20.9786 0.638342 21.0009 0.533503 21.0444C0.428664 21.0878 0.333402 21.1514 0.253156 21.2316C0.17291 21.3119 0.109252 21.4071 0.065815 21.5119C0.0223783 21.6168 1.43625e-05 21.7291 0 21.8426L0 23.7443C5.79898e-05 23.9735 0.0911349 24.1933 0.253207 24.3554C0.415279 24.5174 0.63508 24.6085 0.864285 24.6086H3.94648V55.2068C3.94647 55.3203 3.96882 55.4327 4.01225 55.5376C4.05567 55.6424 4.11934 55.7377 4.1996 55.818C4.27985 55.8982 4.37514 55.9619 4.48 56.0053C4.58487 56.0487 4.69727 56.0711 4.81077 56.0711H51.1895C51.303 56.0711 51.4154 56.0487 51.5202 56.0053C51.6251 55.9619 51.7204 55.8982 51.8006 55.818C51.8809 55.7377 51.9446 55.6424 51.988 55.5376C52.0314 55.4327 52.0538 55.3203 52.0537 55.2068V50.1883C52.0537 49.9591 51.9626 49.7393 51.8005 49.5772C51.6385 49.4152 51.4187 49.3241 51.1895 49.324C51.0759 49.324 50.9635 49.3463 50.8587 49.3898C50.7538 49.4332 50.6585 49.4968 50.5782 49.5771C50.4979 49.6574 50.4343 49.7527 50.3908 49.8575C50.3474 49.9624 50.325 50.0748 50.3251 50.1883V54.3429H33.1852V25.1401C35.6333 29.777 37.2906 34.819 38.0532 40.0283C38.0833 40.2337 38.1862 40.4214 38.3433 40.557C38.5004 40.6927 38.701 40.7673 38.9086 40.7672C39.0424 40.7672 39.1744 40.7361 39.2941 40.6764C39.4139 40.6167 39.5181 40.53 39.5986 40.4232C40.8411 38.7749 41.9963 37.0103 43.0392 35.168C44.7859 36.3575 46.4816 37.6836 48.0906 39.1192C48.2231 39.2372 48.3887 39.3117 48.5649 39.3324C48.7411 39.3531 48.9194 39.3191 49.0756 39.2349C49.2318 39.1508 49.3583 39.0207 49.438 38.8621C49.5177 38.7036 49.5467 38.5244 49.521 38.3489C48.831 33.6419 47.5446 29.0131 45.7211 24.6086H50.3247V46.7311C50.3247 46.8446 50.3471 46.957 50.3905 47.0618C50.4339 47.1667 50.4976 47.262 50.5778 47.3422C50.6581 47.4225 50.7534 47.4862 50.8583 47.5296C50.9631 47.573 51.0755 47.5954 51.189 47.5954C51.3025 47.5954 51.4149 47.5731 51.5198 47.5297C51.6247 47.4862 51.72 47.4226 51.8003 47.3423C51.8805 47.262 51.9442 47.1667 51.9876 47.0619C52.031 46.957 52.0533 46.8446 52.0533 46.7311V24.6086H55.1359C55.2494 24.6085 55.3618 24.5862 55.4666 24.5427C55.5714 24.4993 55.6666 24.4356 55.7469 24.3553C55.8271 24.2751 55.8907 24.1798 55.9341 24.075C55.9775 23.9701 55.9998 23.8578 55.9998 23.7443V12.1636C55.9999 12.0501 55.9776 11.9377 55.9343 11.8329C55.8909 11.728 55.8273 11.6327 55.7471 11.5524C55.6668 11.4722 55.5715 11.4085 55.4667 11.3651C55.3618 11.3217 55.2494 11.2994 55.1359 11.2994ZM44.0496 2.12722C44.8209 1.76147 45.6804 1.73675 46.4712 2.05799C47.2609 2.37889 47.859 2.99533 48.1559 3.79487L49.5373 7.50805C49.8346 8.30781 49.7838 9.16662 49.3949 9.9258C49.0067 10.6846 48.3397 11.2271 47.5176 11.4532L33.7598 15.2408V11.087C36.8523 9.19353 44.5615 5.28795 46.4802 7.99631C46.5457 8.08894 46.6289 8.16775 46.7249 8.22823C46.8209 8.28872 46.9279 8.32969 47.0398 8.34882C47.1517 8.36794 47.2662 8.36484 47.3769 8.3397C47.4875 8.31455 47.5921 8.26785 47.6847 8.20226C48.0743 7.92631 48.1666 7.38665 47.8906 6.99749C46.4098 4.90689 43.2892 4.80528 38.6147 6.69583C36.689 7.47426 34.9112 8.4244 33.7598 9.08372V8.44584C33.7598 7.98318 33.6637 7.54218 33.4911 7.14187L44.0496 2.12722ZM25.5417 6.87313H30.4585C31.3259 6.87313 32.0311 7.57904 32.0311 8.44595V15.5899C32.0311 16.4573 31.3258 17.1627 30.4585 17.1627H25.5417C24.6743 17.1627 23.9691 16.4573 23.9691 15.5899V8.44595C23.9691 7.5786 24.6744 6.87313 25.5417 6.87313ZM24.0892 22.8797C24.9173 21.5042 25.8167 20.1729 26.7837 18.8913H29.2156C30.183 20.1727 31.0824 21.504 31.9103 22.8797H24.0892ZM6.60518 9.9258C6.21635 9.16662 6.16549 8.30781 6.46245 7.50838L7.84463 3.79432C8.14103 2.99544 8.73932 2.37889 9.52879 2.05799C10.3192 1.73675 11.1793 1.76158 11.95 2.12722L22.509 7.14274C22.3313 7.55433 22.2399 7.99797 22.2403 8.44628V9.13315C21.0927 8.47275 19.2748 7.49438 17.3 6.69583C12.6259 4.80528 9.50484 4.90689 8.024 6.99749C7.74805 7.38665 7.84025 7.92631 8.22996 8.20226C8.32254 8.26789 8.42715 8.31462 8.53781 8.33979C8.64847 8.36496 8.76301 8.36807 8.87487 8.34894C8.98673 8.32981 9.09372 8.28882 9.18973 8.22832C9.28574 8.16781 9.36888 8.08897 9.4344 7.99631C11.3711 5.26236 19.2072 9.26736 22.2403 11.1396V15.2408L8.48305 11.4537C7.66055 11.2273 6.99347 10.6846 6.60518 9.9258ZM22.6282 17.1402C23.0584 17.9452 23.8121 18.5523 24.7149 18.7861C20.6727 24.4257 17.89 30.9058 16.5848 37.717C15.6585 36.3624 14.8032 34.9606 14.0226 33.5171C13.9658 33.4119 13.8879 33.3197 13.7937 33.2462C13.6994 33.1727 13.591 33.1196 13.4752 33.0902C13.3593 33.0608 13.2387 33.0557 13.1208 33.0754C13.0029 33.095 12.8904 33.1389 12.7904 33.2043C11.351 34.1431 9.94157 35.1727 8.58028 36.2785C9.98215 28.9204 12.8784 21.8255 17.0317 15.5997L22.6282 17.1402ZM5.67505 24.6086H10.2791C8.45571 29.0131 7.16923 33.6415 6.47874 38.3489C6.45299 38.5244 6.4819 38.7036 6.56154 38.8622C6.64118 39.0207 6.7677 39.1509 6.9239 39.235C7.08018 39.3191 7.25853 39.3531 7.43479 39.3324C7.61104 39.3117 7.77665 39.2372 7.90916 39.1192C9.51818 37.6836 11.2139 36.3575 12.961 35.168C14.0039 37.0103 15.1588 38.7744 16.4016 40.4232C16.4821 40.5301 16.5864 40.6168 16.7061 40.6766C16.8258 40.7363 16.9578 40.7674 17.0917 40.7675C17.163 40.7675 17.2347 40.7585 17.3057 40.7401C17.4708 40.698 17.6198 40.6079 17.7338 40.4813C17.8479 40.3546 17.9219 40.1971 17.9465 40.0284C18.7097 34.8189 20.3669 29.7767 22.8146 25.1397V54.3429H5.67516L5.67505 24.6086ZM24.5432 54.3429V24.6086H31.4568V54.3429H24.5432ZM43.2096 33.2044C43.1096 33.1392 42.9971 33.0955 42.8792 33.0759C42.7614 33.0564 42.6408 33.0614 42.525 33.0908C42.4092 33.1202 42.3008 33.1733 42.2066 33.2467C42.1123 33.3201 42.0343 33.4122 41.9774 33.5172C41.1969 34.9607 40.3416 36.3625 39.4152 37.717C38.11 30.9053 35.3273 24.4257 31.2847 18.7865C32.1874 18.5532 32.9416 17.9456 33.3718 17.1403L38.9696 15.5992C43.122 21.8264 46.0183 28.9211 47.4202 36.2784C46.0584 35.1727 44.649 34.1431 43.2096 33.2044ZM54.2714 22.8799H44.973C43.7562 20.1875 42.3347 17.5923 40.721 15.1173L47.9761 13.1199C48.0748 13.0925 48.1722 13.0614 48.2684 13.0276H54.2715L54.2714 22.8799Z" fill="black"/>
</g>
<defs>
<clipPath id="clip0_9_231">
<rect width="56" height="56" fill="white"/>
</clipPath>
</defs>
</svg>
