<svg width="56" height="56" viewBox="0 0 56 56" fill="none" xmlns="http://www.w3.org/2000/svg">
<path d="M12.8333 16.3332H38.5C38.6532 16.3333 38.805 16.3032 38.9466 16.2446C39.0882 16.186 39.2168 16.1 39.3252 15.9917C39.4335 15.8833 39.5195 15.7547 39.5781 15.6131C39.6367 15.4715 39.6668 15.3197 39.6667 15.1665C39.6668 15.0132 39.6367 14.8615 39.5781 14.7199C39.5195 14.5783 39.4335 14.4496 39.3252 14.3413C39.2168 14.2329 39.0882 14.147 38.9466 14.0884C38.805 14.0298 38.6532 13.9997 38.5 13.9998H12.8333C12.68 13.9997 12.5283 14.0298 12.3867 14.0884C12.2451 14.147 12.1164 14.2329 12.0081 14.3413C11.8997 14.4496 11.8138 14.5783 11.7552 14.7199C11.6966 14.8615 11.6665 15.0132 11.6666 15.1665C11.6665 15.3197 11.6966 15.4714 11.7552 15.613C11.8138 15.7546 11.8998 15.8833 12.0081 15.9916C12.1165 16.1 12.2451 16.1859 12.3867 16.2445C12.5283 16.3031 12.68 16.3332 12.8333 16.3332ZM26.8333 27.9999H12.8333C12.68 27.9998 12.5283 28.0299 12.3867 28.0885C12.2451 28.1471 12.1164 28.233 12.0081 28.3414C11.8997 28.4497 11.8138 28.5784 11.7552 28.72C11.6966 28.8616 11.6665 29.0133 11.6666 29.1666C11.6665 29.3198 11.6966 29.4716 11.7552 29.6132C11.8138 29.7548 11.8997 29.8834 12.0081 29.9918C12.1164 30.1001 12.2451 30.1861 12.3867 30.2447C12.5283 30.3033 12.68 30.3334 12.8333 30.3333H26.8333C26.9865 30.3334 27.1383 30.3033 27.2799 30.2447C27.4215 30.1861 27.5501 30.1001 27.6585 29.9918C27.7668 29.8834 27.8528 29.7548 27.9114 29.6132C27.97 29.4716 28.0001 29.3198 28 29.1666C28.0001 29.0133 27.97 28.8616 27.9114 28.72C27.8528 28.5784 27.7668 28.4497 27.6585 28.3414C27.5501 28.233 27.4215 28.1471 27.2799 28.0885C27.1383 28.0299 26.9865 27.9998 26.8333 27.9999Z" fill="black"/>
<path d="M51.5339 6.99996C51.4663 6.99996 51.4008 7.01691 51.3334 7.02008V6.99996C51.3334 4.42625 49.2393 2.33325 46.6667 2.33325H4.6667C2.09409 2.33325 0 4.42625 0 6.99996V52.5C4.82847e-05 52.7307 0.068471 52.9562 0.196624 53.148C0.324777 53.3398 0.506911 53.4894 0.720016 53.5777C0.863625 53.6381 1.0162 53.6667 1.16659 53.6667C1.46967 53.6667 1.76816 53.5482 1.9915 53.3249L13.3164 42H46.6667C49.2393 42 51.3334 39.9071 51.3334 37.3333V17.9824L54.6921 14.6243V14.6232C55.5238 13.7915 56 12.6408 56 11.4661C56 9.00294 53.9971 6.99996 51.5339 6.99996ZM49 37.3333C49 38.6195 47.954 39.6665 46.6667 39.6665H12.8333C12.6801 39.6665 12.5284 39.6967 12.3868 39.7553C12.2453 39.814 12.1167 39.9 12.0084 40.0083L2.3333 49.6835V6.99996C2.3333 5.71371 3.37925 4.66666 4.66659 4.66666H46.6666C47.9542 4.66666 49 5.71371 49 6.99996V7.79686C48.7785 7.94911 48.5667 8.11656 48.3757 8.30786L35.6816 21H12.8333C12.6801 20.9999 12.5283 21.03 12.3867 21.0886C12.2451 21.1472 12.1164 21.2331 12.0081 21.3414C11.8997 21.4498 11.8138 21.5785 11.7552 21.7201C11.6966 21.8617 11.6665 22.0134 11.6666 22.1667C11.6665 22.3199 11.6966 22.4717 11.7552 22.6133C11.8138 22.7549 11.8997 22.8835 12.0081 22.9919C12.1164 23.1002 12.2451 23.1862 12.3867 23.2448C12.5283 23.3034 12.6801 23.3335 12.8333 23.3334H33.8098L32.6895 28.9377C32.612 29.3205 32.7328 29.7159 33.0085 29.9916C33.2274 30.2102 33.524 30.3332 33.8334 30.3334C33.9087 30.3334 33.9861 30.3254 34.0612 30.3106L39.8923 29.1439C40.1186 29.0993 40.3265 28.9882 40.4893 28.8249L49 20.3155V37.3333ZM39.0902 26.9256L35.3213 27.6798L36.0756 23.9064L46.6662 13.3158L49.6835 16.3331L39.0902 26.9256ZM53.0423 12.9746L51.3333 14.6835L48.3158 11.666L50.0253 9.95647C50.4267 9.55857 50.9686 9.33469 51.5338 9.33325C52.7096 9.33325 53.6666 10.2903 53.6666 11.4661C53.6667 12.0266 53.4388 12.577 53.0423 12.9746Z" fill="black"/>
</svg>
