<svg width="56" height="56" viewBox="0 0 56 56" fill="none" xmlns="http://www.w3.org/2000/svg">
<g clip-path="url(#clip0_9_256)">
<path d="M9.89453 48.4684L27.6095 55.9273C27.724 55.9752 27.8469 56 27.971 56.0001C28.0953 56 28.2183 55.9753 28.3329 55.9273L46.0478 48.4684C46.2169 48.3971 46.3613 48.2775 46.4627 48.1246C46.5642 47.9718 46.6183 47.7923 46.6183 47.6088V40.4945L55.4089 36.3307C55.548 36.2647 55.6686 36.1653 55.76 36.0414C55.8514 35.9175 55.9108 35.773 55.9329 35.6206C55.9547 35.4681 55.9383 35.3126 55.8854 35.1679C55.8325 35.0233 55.7447 34.894 55.6297 34.7915L47.2384 27.3326L47.2329 27.339C47.1431 27.2597 47.0444 27.1909 46.9269 27.1496L41.2117 25.1496C43.991 23.1442 47.1815 21.5204 50.4366 20.5311L49.8948 18.7465C46.0452 19.9165 42.2774 21.9287 39.103 24.4112L32.7366 22.1832C33.0862 21.6533 33.4412 21.1265 33.8209 20.6166C34.9127 19.1521 35.9747 18.0222 37.0516 17.1895C37.28 18.6604 38.328 19.993 39.7738 20.4609C41.6581 21.0728 43.8529 20.0981 44.6661 18.2921C44.9711 17.6155 45.0603 16.9113 44.926 16.2553C44.6883 15.0934 43.7168 14.1132 42.449 13.7564C41.9686 13.6212 41.451 13.5687 40.902 13.6043C42.9066 11.9353 45.3913 10.8559 47.9835 10.5396L47.7577 8.68884C44.5122 9.08405 41.4119 10.5349 39.0291 12.7735C38.5433 13.2297 37.9324 13.8648 37.5081 14.6674C35.7152 15.6352 34.0344 17.209 32.3254 19.5027C31.8308 20.1668 31.3596 20.8481 30.9129 21.5454L28.2795 20.623C28.0801 20.5534 27.863 20.5534 27.6636 20.623L20.5134 23.1256C19.6319 21.9619 18.6709 20.9404 17.6312 20.074C15.0963 17.9611 12.0715 16.7687 9.11507 16.7137C6.21506 16.6683 3.63556 17.7908 2.22197 19.7394C1.34205 20.9521 0.980062 22.5856 1.25511 24.1084C1.49449 25.4351 2.19016 26.5409 3.21494 27.2207L4.24614 25.6672C3.64826 25.2712 3.23814 24.5987 3.09024 23.7776C2.90621 22.7601 3.15166 21.6319 3.73171 20.8348C4.78691 19.3792 6.79336 18.5311 9.07953 18.5794C11.6135 18.6262 14.2271 19.6665 16.4371 21.5081C17.2237 22.1646 17.9611 22.9262 18.6522 23.7793L9.01543 27.1527C8.89806 27.1937 8.79877 27.2625 8.70949 27.3418L8.70413 27.3353L0.312837 34.7943C0.197853 34.8967 0.109993 35.026 0.0570837 35.1707C0.00417406 35.3153 -0.0121431 35.4708 0.00958541 35.6233C0.03111 35.7758 0.0902805 35.9207 0.181759 36.0447C0.273237 36.1686 0.394145 36.2679 0.533575 36.3335L9.32369 40.4945V47.6088C9.32378 47.7924 9.37798 47.9718 9.47951 48.1247C9.58104 48.2775 9.7254 48.3971 9.89453 48.4684ZM38.9067 16.2129C38.9191 16.1534 38.934 16.0937 38.9518 16.034C39.2402 15.9041 39.5362 15.7917 39.8382 15.6976C40.6618 15.4403 41.3711 15.3899 41.9455 15.5528C42.5292 15.7171 43.0035 16.1592 43.0997 16.6299C43.1538 16.8959 43.1065 17.2145 42.9653 17.5278C42.5452 18.4602 41.3219 19.0019 40.3485 18.6886C39.3752 18.3718 38.7009 17.2154 38.9067 16.2129ZM11.1884 41.3777L18.2485 44.722C18.3732 44.781 18.5094 44.8116 18.6474 44.8117C18.8779 44.8116 19.1002 44.7261 19.2715 44.5718L27.0386 37.5809V53.6633L11.1884 46.9896V41.3777ZM44.7536 46.9896L28.9034 53.6634V37.5809L36.6709 44.5718C36.8421 44.726 37.0643 44.8115 37.2947 44.8117C37.4327 44.8116 37.5691 44.7809 37.694 44.722L44.7536 41.3777V46.9896ZM37.4572 42.7708L29.7093 35.7976L46.4303 29.1086L53.337 35.2482L37.4572 42.7708ZM19.8009 25.3505C20.3587 26.2009 20.8777 27.1209 21.3525 28.1156L23.0351 27.3122C22.609 26.421 22.1319 25.5552 21.6061 24.719L27.971 22.4909L29.9413 23.1797C29.0436 24.7609 28.2547 26.4039 27.6087 28.1093L29.3522 28.7703C30.0046 27.0481 30.8123 25.3951 31.7351 23.807L37.4404 25.8035C36.4939 26.6566 35.6066 27.5434 34.8239 28.4721L36.2508 29.6726C37.1877 28.5595 38.2748 27.5025 39.4581 26.5104L43.9624 28.087L27.971 34.4838L11.9801 28.0878L19.8009 25.3505ZM9.51226 29.1086L26.2333 35.7976L18.4854 42.7708L2.60541 35.2481L9.51226 29.1086Z" fill="#1F1F1F"/>
<path d="M17.1251 3.40612C17.0198 2.92035 16.7986 2.54473 16.4686 2.29112C16.0174 1.94428 15.4933 1.92552 15.1446 1.94055C13.2631 2.02342 11.5235 3.17477 10.7113 4.87378L12.3945 5.67736C12.9052 4.60887 14.0434 3.85458 15.2275 3.80214C15.2557 3.80121 15.2799 3.80027 15.3003 3.80027C15.3031 3.80027 15.305 3.80121 15.305 3.80214C15.4206 4.33207 15.2043 4.93345 14.9535 5.63086C14.7782 6.11569 14.5983 6.61695 14.5059 7.16553C14.4754 7.3527 14.3803 7.92448 14.7503 8.4184C15.0459 8.81174 15.5129 9.01896 16.1294 8.98936C16.8217 8.97153 17.4664 8.82677 18.0902 8.68704C18.5759 8.57783 19.0421 8.47353 19.5288 8.44439L18.8109 11.5615C18.7494 11.8284 18.6466 12.2749 18.8341 12.753C19.1809 13.6343 20.1916 13.8879 21.012 13.6853C21.1746 13.6452 21.3356 13.5901 21.4951 13.5346C21.6712 13.4728 21.8455 13.3916 21.9531 13.414C22.1514 13.4236 22.437 13.8898 22.5067 14.4761C22.5261 14.6409 22.5402 14.8088 22.5535 14.9786C22.6168 15.7703 22.6896 16.6673 23.301 17.4216L24.7491 16.2456C24.5021 15.9406 24.4582 15.4011 24.4123 14.8284C24.3963 14.6354 24.3808 14.4424 24.3581 14.2544C24.2024 12.9583 23.4272 11.6193 22.0459 11.551C21.5875 11.5297 21.1951 11.664 20.8804 11.7741C20.8071 11.8001 20.7333 11.8265 20.6587 11.8497L21.4345 8.48576C21.4836 8.27225 21.5875 7.83031 21.3652 7.3759C21.2246 7.085 20.8472 6.59283 19.9139 6.56695C19.1136 6.54458 18.3892 6.70856 17.6827 6.86787C17.262 6.96298 16.8582 7.05353 16.4311 7.0963C16.5049 6.82871 16.6047 6.55192 16.7085 6.26277C17.0104 5.41735 17.3554 4.45864 17.1249 3.40612H17.1251ZM0.238159 14.1087L2.07107 14.4529C2.34869 12.9715 3.65435 11.6489 5.3192 11.1632C6.82346 10.7244 8.64402 10.9023 10.4455 11.6658C12.2723 12.4409 13.8664 13.6773 15.0718 15.2537L16.5536 14.1219C15.1519 12.2881 13.2978 10.85 11.1729 9.94853C8.97816 9.01896 6.71414 8.81361 4.79708 9.37314C2.43936 10.0615 0.649216 11.9202 0.238159 14.1087ZM25.179 6.62977L26.8894 5.88679L29.1406 11.0681L27.4301 11.811L25.179 6.62977ZM30.2332 12.1524L31.9114 12.9655C32.6655 11.4084 33.6471 9.97216 34.8239 8.70394L33.4572 7.43592C32.1536 8.83879 31.0669 10.4285 30.2331 12.1525L30.2332 12.1524ZM29.1994 6.99759L31.06 6.88745C30.9716 5.38821 31.3855 3.87684 32.2254 2.63213L30.6807 1.58905C29.6122 3.17116 29.0854 5.09183 29.1994 6.99759ZM52.9756 17.9902L53.3138 19.824C54.2248 19.6564 55.1284 19.5435 55.9998 19.4884L55.8833 17.6274C54.9381 17.687 53.9598 17.8095 52.9755 17.9902H52.9756ZM23.3092 0.0581055H25.1739V1.92284H23.3092V0.0581055ZM40.0918 1.92284H41.9565V3.78757H40.0918V1.92284ZM52.2126 11.2465H54.0773V13.1112H52.2126V11.2465ZM2.79715 1.92284H4.66189V3.78757H2.79715V1.92284ZM18.6474 16.8407H20.5121V18.7054H18.6474V16.8407ZM8.39135 22.4349H10.2561V24.2996H8.39135V22.4349Z" fill="#1F1F1F"/>
</g>
<defs>
<clipPath id="clip0_9_256">
<rect width="56" height="56" fill="white"/>
</clipPath>
</defs>
</svg>
